/* XPM */
static const char * mux[] = {
/* width height num_colors chars_per_pixel */
"    44    18      127            2",
/* colors */
".. c #0b0b00",
".# c #0d0d00",
".a c #0f0f00",
".b c #101000",
".c c #111100",
".d c #121200",
".e c #141400",
".f c #151500",
".g c #161600",
".h c #171700",
".i c #181800",
".j c #191900",
".k c #191901",
".l c #1d1d00",
".m c #202000",
".n c #292912",
".o c #2a2a00",
".p c #2c2c00",
".q c #313100",
".r c #343400",
".s c #353500",
".t c #393925",
".u c #3b3b27",
".v c #424200",
".w c #454532",
".x c #484836",
".y c #535300",
".z c #545400",
".A c #575700",
".B c #595900",
".C c #6f6f00",
".D c #717100",
".E c #737365",
".F c #7c7c71",
".G c #7f7f00",
".H c #848400",
".I c #878700",
".J c #8d8d00",
".K c #8e8e00",
".L c #99998f",
".M c #9e9e00",
".N c #a4a49b",
".O c #a9a900",
".P c #aaaa00",
".Q c #ababa2",
".R c #acac00",
".S c #afaf00",
".T c #b4b400",
".U c #b5b500",
".V c #b6b600",
".W c #b7b700",
".X c #b8b800",
".Y c #b8b801",
".Z c #b9b900",
".0 c #baba00",
".1 c #baba01",
".2 c #babab2",
".3 c #bbbb00",
".4 c #bbbbb4",
".5 c #bcbc00",
".6 c #bdbd00",
".7 c #bdbdb6",
".8 c #bebe00",
".9 c #bfbf00",
"#. c #c0c000",
"## c #c1c100",
"#a c #c2c200",
"#b c #c2c216",
"#c c #c3c300",
"#d c #c3c31f",
"#e c #c4c400",
"#f c #c4c419",
"#g c #c5c500",
"#h c #c6c600",
"#i c #c7c700",
"#j c #c9c926",
"#k c #caca29",
"#l c #cbcb0f",
"#m c #cdcd9d",
"#n c #d2d2ce",
"#o c #d3d35c",
"#p c #d3d3ce",
"#q c #d9d963",
"#r c #d9d96d",
"#s c #d9d974",
"#t c #d9d975",
"#u c #dcdcd9",
"#v c #dddd62",
"#w c #dfdf85",
"#x c #e4e494",
"#y c #e6e6a5",
"#z c #e8e8a4",
"#A c #e8e8a5",
"#B c #e8e8e2",
"#C c #e8e8e6",
"#D c #e9e9a4",
"#E c #e9e9a7",
"#F c #e9e9a8",
"#G c #eaeaa8",
"#H c #eaeaab",
"#I c #ebeba5",
"#J c #ececa5",
"#K c #ececa6",
"#L c #ededeb",
"#M c #eeeebb",
"#N c #eeeebf",
"#O c #f1f1c4",
"#P c #f4f4d0",
"#Q c #f5f5ce",
"#R c #f5f5d9",
"#S c #f6f6f5",
"#T c #f7f7da",
"#U c #f7f7db",
"#V c #f7f7dc",
"#W c #f7f7dd",
"#X c #f8f8e4",
"#Y c #f8f8e5",
"#Z c #f8f8f7",
"#0 c #f9f9f8",
"#1 c #fafae9",
"#2 c #fbfbee",
"#3 c #fcfcf2",
"#4 c #fcfcf3",
"#5 c #fcfcf5",
"#6 c #fffffd",
"#7 c #fffffe",
"#8 c #ffffff",
/* pixels */
"#8#8#8#8#8#8#8.N.b.e.q.R.W.T.T.T.U.U.U.U.U.V.V.V.V.V.W.W.W.W.W.X.X.X.X.V#t#8#8#8#8#8#8#8",
"#8#8#8#8#8#8#L.t.h.b.B.3.T.T.U.U.U.U.U.V.V.V.V.V.W.W.W.W.W.X.X.X.X.X.Z.Z.Y#R#8#8#8#8#8#8",
"#8#8#8#8#8#8.2.g.i.f.I.5.T.U.U.U.U.U.V.V.V.V.W.W.W.W.W.X.X.X.X.X.Z.Z.Z.Z.X#o#7#8#8#8#8#8",
"#8#8#8#8#8#S.w.g.e.r.S.W.U.U.U.U.V.V.V.V.W.W.W.W.W.X.X.X.X.Z.Z.Z.Z.Z.0.0.0.1#N#8#8#8#8#8",
"#8#8#8#8#8#n.e.i.c.C.8.U.U.U.V.V.V.V.V.W.W.W.W.X.X.X.X.Z.Z.Z.Z.Z.0.0.0.0.3.Z#s#8#8#8#8#8",
"#8#8#8#8#8.L.a.h.m.M.0.U.V.V.V.V.V.W.W.W.W.X.X.X.X.X.Z.Z.Z.Z.0.0.0.0.3.3.3.0#d#3#8#8#8#8",
"#8#8#8#8#Z.u.g.c.z.0.V.V.V.V.V.V.W.W.W.W.X.X.X.X.Z.Z.Z.Z.Z.0.0.0.0.3.3.3.3.5.Z#w#8#8#8#8",
"#8#8#8#8.Q.d.h.i.J.6.V.V.V.V.W.W.W.W.X.X.X.X.X.Z.Z.Z.Z.0.0.0.0.3.3.3.3.5.5.5.3#b#X#8#8#8",
"#8#8#8#0.x.g.f.o.R.Z.V.V.W.W.W.W.X.X.X.X.X.Z.Z.Z.Z.0.0.0.0.3.3.3.3.5.5.5.5.6.6.5#r#8#8#8",
"#8#8#8.4.k.i.b.y.5.W.W.W.W.W.W.X.X.X.X.Z.Z.Z.Z.0.0.0.0.3.3.3.3.3.5.5.5.6.6.6.6.6#f#Y#8#8",
"#8#8#8.E.d.i.j.K.6.V.W.W.W.W.X.X.X.X.Z.Z.Z.Z.0.0.0.0.3.3.3.3.5.5.5.5.6.6.6.6.8.8.6#H#8#8",
"#8#8#C.n.h.d.v.Z.X.W.W.W.X.X.X.X.Z.Z.Z.Z.Z.0.0.0.0.3.3.3.3.5.5.5.6.6.6.6.8.8.8.8.8#k#5#8",
"#8#8.7.h.i.b.D#..W.W.W.X.X.X.X.Z.Z.Z.Z.0.0.0.0.3.3.3.3.5.5.5.5.6.6.6.6.8.8.8.9.9.9.5#M#8",
"#8#S.w.g.f.p.P.3.W.X.X.X.X.Z.Z.Z.Z.0.0.0.0.3.3.3.3.5.5.5.5.6.6.6.6.8.8.8.9.9.9.9#..9#j#2",
"#8#p.e.i.#.A.9.W.W.X.X.X.X.Z.Z.Z.Z.0.0.0.0.3.3.3.3.5.5.5.5.6.6.6.8.8.8.8.9.9.9#.#.#..9#x",
"#8.F...e.l.H#c.0.0.3.3.3.3.5.5.5.6.6.6.6.8.8.8.8.9.9.8.9.9.9.9#.#.#.#.#a#a###a.9.9###a#q",
"#u.b.s.G.O.5.5.5.5.5.6.9#.#######a#a#c#c#c#c#e#e#e#e#e#e#g#g#g#g#g#h#h#i#i#i#l#v#K#Q#T#4",
"#B#m#y#J#I#A#A#A#A#A#E#z#F#F#G#G#G#G#G#G#G#G#G#G#D#O#W#U#U#U#U#U#U#U#U#U#V#P#1#6#8#8#8#8"
};
