/* XPM */
static const char * protocol [] = {
/* width height num_colors chars_per_pixel */
"    20    30      170            2",
/* colors */
".. c #000900",
".# c #000c00",
".a c #000f00",
".b c #001000",
".c c #001100",
".d c #001200",
".e c #001300",
".f c #001c00",
".g c #002400",
".h c #003a00",
".i c #009300",
".j c #009500",
".k c #010d00",
".l c #011000",
".m c #011300",
".n c #011400",
".o c #011500",
".p c #011600",
".q c #011700",
".r c #011800",
".s c #011900",
".t c #012d00",
".u c #014900",
".v c #021800",
".w c #022101",
".x c #022201",
".y c #022301",
".z c #022401",
".A c #022501",
".B c #022601",
".C c #027100",
".D c #029f00",
".E c #033001",
".F c #033101",
".G c #033201",
".H c #033301",
".I c #033401",
".J c #033f02",
".K c #037f00",
".L c #039402",
".M c #039702",
".N c #041303",
".O c #041703",
".P c #043e01",
".Q c #043f01",
".R c #044001",
".S c #044101",
".T c #044502",
".U c #049e00",
".V c #049f00",
".W c #054c02",
".X c #054d02",
".Y c #058d00",
".Z c #059200",
".0 c #059c01",
".1 c #065902",
".2 c #065a02",
".3 c #066002",
".4 c #066702",
".5 c #066802",
".6 c #069700",
".7 c #069800",
".8 c #071a06",
".9 c #076603",
"#. c #076703",
"## c #076f03",
"#a c #077003",
"#b c #077303",
"#c c #077403",
"#d c #079801",
"#e c #07a100",
"#f c #087403",
"#g c #087503",
"#h c #087903",
"#i c #087c03",
"#j c #087d03",
"#k c #087e03",
"#l c #087f03",
"#m c #088003",
"#n c #088103",
"#o c #088203",
"#p c #088303",
"#q c #088503",
"#r c #089402",
"#s c #089502",
"#t c #089e02",
"#u c #098804",
"#v c #098a04",
"#w c #098c04",
"#x c #098d04",
"#y c #098e04",
"#z c #098f04",
"#A c #099503",
"#B c #099903",
"#C c #099e03",
"#D c #0a9104",
"#E c #0a9604",
"#F c #0a9704",
"#G c #0a9804",
"#H c #0a9904",
"#I c #0a9a04",
"#J c #0a9b04",
"#K c #0a9c04",
"#L c #0a9d04",
"#M c #0a9e04",
"#N c #0a9f04",
"#O c #0aa004",
"#P c #0aa104",
"#Q c #0aa204",
"#R c #0ba304",
"#S c #0f9909",
"#T c #0f9d09",
"#U c #0fa408",
"#V c #129d0c",
"#W c #156211",
"#X c #1f301e",
"#Y c #22ab1c",
"#Z c #24a420",
"#0 c #273827",
"#1 c #354534",
"#2 c #35b330",
"#3 c #39aa35",
"#4 c #39ae34",
"#5 c #495748",
"#6 c #4fb54b",
"#7 c #535e52",
"#8 c #57c052",
"#9 c #5e6a5d",
"a. c #70c16d",
"a# c #75c372",
"aa c #768176",
"ab c #76cb73",
"ac c #7bae79",
"ad c #7bca78",
"ae c #7bcd78",
"af c #81cb7f",
"ag c #88c285",
"ah c #8ecd8b",
"ai c #8f988f",
"aj c #9dd99b",
"ak c #9ece9d",
"al c #a4d9a3",
"am c #a4daa3",
"an c #abdbaa",
"ao c #abdcaa",
"ap c #b5bab5",
"aq c #b7bfb6",
"ar c #b7e4b6",
"as c #bfc4bf",
"at c #c3e8c2",
"au c #c5e9c4",
"av c #c6e7c5",
"aw c #c6e8c5",
"ax c #d3ecd2",
"ay c #e0e3e0",
"az c #e4f3e4",
"aA c #e7f5e6",
"aB c #ebf6eb",
"aC c #f1f2f1",
"aD c #f5f5f5",
"aE c #f5f6f5",
"aF c #f5fbf5",
"aG c #f9f9f9",
"aH c #f9fcf9",
"aI c #fcfcfc",
"aJ c #fcfefc",
"aK c #fdfefd",
"aL c #fefefe",
"aM c #fefffe",
"aN c #ffffff",
/* pixels */
"aNaNaNaNaNaNaHavanal#6amaoawaHaNaNaNaNaN",
"aNaNaNaNaBa##3#S.L.i.6.j.M#T#4adaAaNaNaN",
"aNaNa..Z#s#E#F#G#G#H#I#I#J#K#L#L#t.0ajaN",
"aNah#r#E#E#F#G#G#H#H#I#J#J#K#L#L#M#N#Cat",
"ax#A#E#E#F#F#G#H#H#I#J#J#K#K#L#M#M#N#O.U",
"ak#E#E#F#F#G#H#H#I#I#J#K#K#L#M#M#N#N#O.U",
"aq#K#E#F#G#G#H#I#I#J#J#K#K#L#M#M#N#O#O.V",
"aE.g#D#K#H#H#H#I#I#J#K#K#L#L#M#M#O#P#K.D",
"aG.c.l.v.T#o#L#R#P#O#O#P#Q#Q#J#u#p#v#F#e",
"aM.#.n.m.k.r.J.3#a#h#q#j#l#i.5###k#w#F#U",
"aN.b.n.n.n.n.n.n.r.A.H.R.X.2.9#b#l#w#F#Y",
"aN...n.n.n.n.n.n.s.B.I.S.X.2.9#b#l#w#G#2",
"aN.O.n.n.n.n.n.n.r.B.H.R.X.2.9#b#m#w#G#8",
"aN#0.n.n.n.n.n.n.r.B.H.R.X.1.9#b#m#w#Gae",
"aN#1.n.n.n.n.n.n.r.A.H.R.X.1.9#b#m#w#Hab",
"aNaa.n.n.n.n.n.n.q.A.H.R.X.1.9#b#m#x#Gar",
"aNai.n.n.n.n.n.n.q.A.H.R.X.1.9#c#m#x#Bau",
"aNap.n.n.n.n.n.n.p.z.G.R.X.1.9#c#m#x#daF",
"aNay.d.n.n.n.n.n.p.z.G.Q.X.1#.#b#n#x.7aJ",
"aNaI.b.n.n.n.n.n.p.z.G.Q.X.1#.#c#n#y.jaN",
"aNaL.a.n.n.n.n.n.p.y.G.Q.X.1#.#c#n#y.jaN",
"aNaN.c.n.n.n.n.n.o.y.F.Q.X.1#.#c#n#y#IaN",
"aNaN.n.n.n.n.n.n.o.y.F.Q.X.1#.#c#n#y#BaN",
"aNaN.8.n.n.n.n.n.o.x.F.Q.W.1#.#c#n#z#VaN",
"aNaN#X.n.n.n.n.n.o.x.F.Q.W.1#.#f#n#y#ZaN",
"aNaN#7.n.n.n.n.n.o.x.F.P.W.1#.#f#o#zafaN",
"aNaNaC.c.n.n.n.n.n.w.E.P.W.2#.#g#o.YaKaN",
"aNaNaNas.e.n.n.n.n.w.E.Q.W.2#.#g.KazaNaN",
"aNaNaNaN#9.c.n.n.n.w.E.P.W.2.4.CagaNaNaN",
"aNaNaNaNaNaD#5.N.c.f.t.h.u#WacaKaNaNaNaN"
};
