/* XPM */
static const char *s_adapter[] = {
/* width height num_colors chars_per_pixel */
"    39    27      251            2",
/* colors */
".. c #ffffff",
".# c #010101",
".a c #3a3a3a",
".b c #3a3a3a",
".c c #3a3a3a",
".d c #3a3a3a",
".e c #3a3a3a",
".f c #3a3a3a",
".g c #3a3a3a",
".h c #3a3a3a",
".i c #3a3a3a",
".j c #3a3a3a",
".k c #3a3a3a",
".l c #3a3a3a",
".m c #3a3a3a",
".n c #3a3a3a",
".o c #3a3a3a",
".p c #3a3a3a",
".q c #3a3a3a",
".r c #3a3a3a",
".s c #3a3a3a",
".t c #3a3a3a",
".u c #010101",
".v c #010101",
".w c #1d1d1d",
".x c #1d1d1d",
".y c #1d1d1d",
".z c #1d1d1d",
".A c #1d1d1d",
".B c #010101",
".C c #1d1d1d",
".D c #1d1d1d",
".E c #010101",
".F c #010101",
".G c #010101",
".H c #010101",
".I c #1d1d1d",
".J c #2c2c2c",
".K c #1d1d1d",
".L c #010101",
".M c #3a3a3a",
".N c #010101",
".O c #010101",
".P c #222222",
".Q c #010101",
".R c #010101",
".S c #bfbfbf",
".T c #3a3a3a",
".U c #3a3a3a",
".V c #010101",
".W c #3a3a3a",
".X c #3a3a3a",
".Y c #3a3a3a",
".Z c #6b6b6b",
".0 c #3a3a3a",
".1 c #3a3a3a",
".2 c #2f2f2f",
".3 c #222222",
".4 c #535353",
".5 c #e7e7e7",
".6 c #6b6b6b",
".7 c #3a3a3a",
".8 c #ffffff",
".9 c #222222",
"#. c #010101",
"## c #2c2c2c",
"#a c #6b6b6b",
"#b c #3a3a3a",
"#c c #848484",
"#d c #1d1d1d",
"#e c #222222",
"#f c #010101",
"#g c #bfbfbf",
"#h c #f5f5f5",
"#i c #e1e1e1",
"#j c #3a3a3a",
"#k c #222222",
"#l c #3a3a3a",
"#m c #2c2c2c",
"#n c #848484",
"#o c #535353",
"#p c #e7e7e7",
"#q c #e7e7e7",
"#r c #222222",
"#s c #222222",
"#t c #444444",
"#u c #2c2c2c",
"#v c #1d1d1d",
"#w c #7e7e7e",
"#x c #e7e7e7",
"#y c #808080",
"#z c #f5f5f5",
"#A c #6b6b6b",
"#B c #2c2c2c",
"#C c #aaaaaa",
"#D c #2c2c2c",
"#E c #3a3a3a",
"#F c #1d1d1d",
"#G c #010101",
"#H c #2c2c2c",
"#I c #848484",
"#J c #848484",
"#K c #010101",
"#L c #aaaaaa",
"#M c #2c2c2c",
"#N c #2f2f2f",
"#O c #535353",
"#P c #ffffff",
"#Q c #222222",
"#R c #848484",
"#S c #222222",
"#T c #cccccc",
"#U c #1d1d1d",
"#V c #888888",
"#W c #e7e7e7",
"#X c #4e4e4e",
"#Y c #1d1d1d",
"#Z c #f5f5f5",
"#0 c #2c2c2c",
"#1 c #2c2c2c",
"#2 c #aaaaaa",
"#3 c #2c2c2c",
"#4 c #1d1d1d",
"#5 c #1d1d1d",
"#6 c #1d1d1d",
"#7 c #cccccc",
"#8 c #444444",
"#9 c #2c2c2c",
"a. c #aaaaaa",
"a# c #010101",
"aa c #2c2c2c",
"ab c #3a3a3a",
"ac c #010101",
"ad c #3a3a3a",
"ae c #010101",
"af c #010101",
"ag c #2c2c2c",
"ah c #3a3a3a",
"ai c #010101",
"aj c #3a3a3a",
"ak c #010101",
"al c #1d1d1d",
"am c #2c2c2c",
"an c #010101",
"ao c #3a3a3a",
"ap c #010101",
"aq c #222222",
"ar c #3a3a3a",
"as c #3a3a3a",
"at c #2c2c2c",
"au c #222222",
"av c #2c2c2c",
"aw c #2c2c2c",
"ax c #535353",
"ay c #2c2c2c",
"az c #010101",
"aA c #bfbfbf",
"aB c #2c2c2c",
"aC c #848484",
"aD c #010101",
"aE c #bfbfbf",
"aF c #3a3a3a",
"aG c #010101",
"aH c #2c2c2c",
"aI c #010101",
"aJ c #2c2c2c",
"aK c #222222",
"aL c #1d1d1d",
"aM c #3a3a3a",
"aN c #3a3a3a",
"aO c #3a3a3a",
"aP c #848484",
"aQ c #6e6e6e",
"aR c #3a3a3a",
"aS c #e7e7e7",
"aT c #3a3a3a",
"aU c #1d1d1d",
"aV c #aeaeae",
"aW c #2c2c2c",
"aX c #444444",
"aY c #2c2c2c",
"aZ c #2c2c2c",
"a0 c #bfbfbf",
"a1 c #535353",
"a2 c #979797",
"a3 c #3a3a3a",
"a4 c #3a3a3a",
"a5 c #1d1d1d",
"a6 c #3a3a3a",
"a7 c #3a3a3a",
"a8 c #3a3a3a",
"a9 c #222222",
"b. c #010101",
"b# c #ffffff",
"ba c #010101",
"bb c #1d1d1d",
"bc c #010101",
"bd c #1d1d1d",
"be c #1d1d1d",
"bf c #aaaaaa",
"bg c #3a3a3a",
"bh c #1d1d1d",
"bi c #1d1d1d",
"bj c #3a3a3a",
"bk c #3a3a3a",
"bl c #3a3a3a",
"bm c #3a3a3a",
"bn c #1d1d1d",
"bo c #3a3a3a",
"bp c #6e6e6e",
"bq c #3a3a3a",
"br c #3a3a3a",
"bs c #010101",
"bt c #010101",
"bu c #b2b2b2",
"bv c #1d1d1d",
"bw c #2c2c2c",
"bx c #2c2c2c",
"by c #3a3a3a",
"bz c #222222",
"bA c #2c2c2c",
"bB c #222222",
"bC c #1d1d1d",
"bD c #3a3a3a",
"bE c #2c2c2c",
"bF c #3a3a3a",
"bG c #6b6b6b",
"bH c #1d1d1d",
"bI c #3a3a3a",
"bJ c #5f5f5f",
"bK c #3a3a3a",
"bL c #e7e7e7",
"bM c #010101",
"bN c #1d1d1d",
"bO c #1d1d1d",
"bP c #3a3a3a",
"bQ c #1d1d1d",
"bR c #444444",
"bS c #2f2f2f",
"bT c #2c2c2c",
"bU c #1d1d1d",
"bV c #222222",
"bW c #010101",
"bX c #bfbfbf",
"bY c #e1e1e1",
"bZ c #2c2c2c",
"b0 c #535353",
"b1 c #a3a3a3",
"b2 c #cccccc",
"b3 c #8c8c8c",
"b4 c #2c2c2c",
/* pixels */
"......................#h.5aE#2#J#I#I#A#a#I#IaC#LaE#W#h........................",
"..............aS#g#CbGa1abaR#Eaaadadahah.Y.Y.Yar#ba6a1#A#JbX#q................",
"..........#TaPb0bKaaaaajaObga8.j.h.h.c.o.s.a.a.MboaTbP.XarbP#l.6aA#h..........",
"......#paPabbAajbF.p.n.n.l.l.j.h.h.c.c.0.a.a.b.b.e.f.f.d.da4aT.Xas#Oa.#x......",
"....#2axaWbK.t.p.p.n.n.n.j.j.h.h.c.c.o.a.a.b.b.e.e.f.d.d.g.g.i.i#jao.1#O#p....",
"..#C#3aM.t.t.p.p.n.n.l.j.j.h.h.c.c.o.s.a.b.b.e.e.f.f.d.d.g.i.i.m.m.kbrao#obX..",
"#T.Taj.t.t.p.p.n.n.l.l.j.h.h.c.c.o.s.a.a.b.b.e.e.f.f.d.g.g.i.i.m.k.k.q.qby#o#W",
"bGaW.t.t.p.p.n.n.l.l.j.j.h.c.c.o.0.a.a.b.b.e.e.f.f.d.d.g.g.i.m.m.k.k.k.q.r.1#c",
".6bD.t.p.p.n.n.l.l.j.j.h.h.c.c.o.s.a.a.b.b.e.e.f.d.d.g.g.i.i.m.m.k.k.k.q.r.7#O",
"aP#E.p.p.n.n.l.l.j.j.h.h.c.c.o.0.a.a.b.b.e.e.f.f.d.d.g.g.i.i.m.m.k.k.q.q.r.7.6",
"a2#M.c.n.n.l.l.l.j.j.h.h.c.c.o.s.a.a.b.b.e.e.f.f.d.d.g.g.i.i.m.m.k.k.q.q.r.1#R",
"buaUbFbl.l.l.l.j.j.h.h.c.c.o.o.a.a.a.b.e.e.e.f.f.d.d.g.g.i.i.m.m.k.k.q.qbj.X#L",
"#iazbbaBbq.o.h.j.j.h.h.c.c.o.s.a.a.b.b.e.e.f.f.f.d.d.g.g.i.i.m.m.k.k.r.rboaRa0",
"#zaX#.a#.A#m.M.f.o.c.c.c.o.o.s.a.a.b.b.e.e.f.f.d.d.d.g.g.i.i.m.kbk.r.g.U#Db0bL",
"b##X.NakbM.v.xau.taN.ibI.M.a.b.a.b.b.b.e.e.f.f.d.d.g.i.i.m.r.r.g.UamawaYbZ.Z#P",
"..bpai.#.#.E.V.E#GbU#sbE.l.s.fa3.W.W.WaFaFbm.Wa7.q.k.g.d.b#m#9ataJag#9amavaC..",
"..b3.G.#.#.#.##f.O.V.OaGafalbhbe#F#QaKagbw.JaJaJbBbza9#Q.3bO#raKat#uaBaYbZa...",
"..aV.Rap.#.#.#.#.#.##fak.O.V.V.H.Hb..uaIaf.F.ya5.wbibd.Abn.9a9#sb4#uaBaH.T#g..",
"..#7a#.L.#.#.#.#.#.#.#.#.#.#.#.#.#.u.v#Gaf.y.C.w.D#4#5.K#F.9.Pau.J#uawaHab.5..",
"..#Z#8bW.#.#.#.#.#.#.#.#.#.#.#.#.#.u.vacba.y.C.w.D#4#5.K.I.9.PbV.J#BbTav.4#Z..",
"....bYazae.#.#.#.#.#.#.#.#.#.#.#.#.u.vac.Q.y.C.w.D.z.A.K.I#r.PaZay#0#1#D#g....",
"......a2azae.#.#.#.#.#.#.#.#.#.#.#.u.v.B.Q.y.C.w.x.z.A#Y.I#raqaZay#B#MaC......",
"........aV#K.G.L.#.#.#.#.#.#.#.#.#.u.v.B.Q.y#6aL.x.z.A#Y#d#kaqbx#H#H#n........",
"..........bYbJ.E.N.L.#.#.#.#.#.#.#.u.v.B.F#U#6.w.x.z.A#Y#d#S#e#e.4aA.8........",
"..............bubRbc.G.N.Lap.#.#.#.u.v.B.F#U#6aL.x.zbHbvbv#v###naS............",
"................#Pb2b3#8#Kanai#..H.LbtbsaDaDbNaUbQbCbH#N#wbf#q................",
"........................#ib1#ybJ#8.2.2bS.2#N#t#XaQ#V.S#x......................"
};
