/* XPM */
static const char *s_factory[] = {
/* width height num_colors chars_per_pixel */
"    25    25       17            1",
/* colors */
". c #ffffff",
"# c #0d0d0d",
"a c #1a1a1a",
"b c #272727",
"c c #121212",
"d c #ffffff",
"e c #bdbdbd",
"f c #393939",
"g c #2c2c2c",
"h c #b0b0b0",
"i c #1f1f1f",
"j c #696969",
"k c #575757",
"l c #4e4e4e",
"m c #6e6e6e",
"n c #5b5b5b",
"o c #7b7b7b",
/* pixels */
"..........ehomee.........",
"........enagkakake.......",
"......em#gnanakgkaje.....",
"....dmianaakakakgkfkkd...",
"...di#n#anagkakgkfakgke..",
"...li#anaanaggkgbkgkffj..",
"..d#i#a#naanakakgkfkgkke.",
"..l##n#nanaakggkaknfkbgk.",
".dl###aaaananakgkjojakkfe",
".i#i#ilalaanagakgnjjkgkfk",
"dl####a#anaanakgakknfkgka",
"hc#c#l#n#anaanakggkgkgkbk",
"ml#####a#n#gaanakgakgkakg",
"l#####ilaaananagakgkakgkb",
"hl##c####la#nanananakgbgg",
"dc#####l#a#naaanaakagkgka",
"di#c#l###n#a#naanagnakana",
".dl########n#anaanaakagae",
"..l##c###i##a#anaanagnand",
"..h####c##l#n#a#naanaaned",
"...l##c#######n#alaanaad.",
"...di###l####l#a#a#n#ad..",
"....dl###c#####l#n#alh...",
"......hl###c######lhd....",
".......dhill##ll#hd......"
};
