/* XPM */
static const char *s_switch[] = {
/* width height num_colors chars_per_pixel */
"    46    21      190            2",
/* colors */
".. c #ffffff",
".# c #969696",
".a c #101010",
".b c #343434",
".c c #090909",
".d c #363636",
".e c #202020",
".f c #dbdbdb",
".g c #3a3a3a",
".h c #0f0f0f",
".i c #060606",
".j c #3e3e3e",
".k c #ababab",
".l c #252525",
".m c #0e0e0e",
".n c #161616",
".o c #2c2c2c",
".p c #ffffff",
".q c #1b1b1b",
".r c #121212",
".s c #191919",
".t c #c4c4c4",
".u c #131313",
".v c #000000",
".w c #181818",
".x c #212121",
".y c #d1d1d1",
".z c #111111",
".A c #0e0e0e",
".B c #cacaca",
".C c #000000",
".D c #ffffff",
".E c #ffffff",
".F c #0c0c0c",
".G c #1d1d1d",
".H c #202020",
".I c #151515",
".J c #0a0a0a",
".K c #cbcbcb",
".L c #c6c6c6",
".M c #151515",
".N c #181818",
".O c #262626",
".P c #cdcdcd",
".Q c #1f1f1f",
".R c #111111",
".S c #232323",
".T c #141414",
".U c #232323",
".V c #444444",
".W c #c2c2c2",
".X c #2b2b2b",
".Y c #d0d0d0",
".Z c #c0c0c0",
".0 c #191919",
".1 c #2f2f2f",
".2 c #1f1f1f",
".3 c #2a2a2a",
".4 c #383838",
".5 c #d0d0d0",
".6 c #a1a1a1",
".7 c #c2c2c2",
".8 c #313131",
".9 c #222222",
"#. c #a9a9a9",
"## c #818181",
"#a c #181818",
"#b c #030303",
"#c c #3e3e3e",
"#d c #aaaaaa",
"#e c #252525",
"#f c #343434",
"#g c #848484",
"#h c #030303",
"#i c #747474",
"#j c #6f6f6f",
"#k c #373737",
"#l c #5c5c5c",
"#m c #979797",
"#n c #1b1b1b",
"#o c #1e1e1e",
"#p c #161616",
"#q c #898989",
"#r c #1a1a1a",
"#s c #333333",
"#t c #bbbbbb",
"#u c #868686",
"#v c #949494",
"#w c #282828",
"#x c #434343",
"#y c #181818",
"#z c #9e9e9e",
"#A c #7d7d7d",
"#B c #2f2f2f",
"#C c #1b1b1b",
"#D c #7d7d7d",
"#E c #656565",
"#F c #7a7a7a",
"#G c #2c2c2c",
"#H c #c8c8c8",
"#I c #3d3d3d",
"#J c #3c3c3c",
"#K c #424242",
"#L c #676767",
"#M c #727272",
"#N c #595959",
"#O c #9f9f9f",
"#P c #4a4a4a",
"#Q c #535353",
"#R c #b0b0b0",
"#S c #5d5d5d",
"#T c #b6b6b6",
"#U c #606060",
"#V c #9f9f9f",
"#W c #515151",
"#X c #acacac",
"#Y c #666666",
"#Z c #787878",
"#0 c #4f4f4f",
"#1 c #6c6c6c",
"#2 c #080808",
"#3 c #7a7a7a",
"#4 c #909090",
"#5 c #888888",
"#6 c #a4a4a4",
"#7 c #787878",
"#8 c #505050",
"#9 c #707070",
"a. c #5f5f5f",
"a# c #7b7b7b",
"aa c #747474",
"ab c #8e8e8e",
"ac c #6b6b6b",
"ad c #2e2e2e",
"ae c #222222",
"af c #242424",
"ag c #6d6d6d",
"ah c #686868",
"ai c #363636",
"aj c #2e2e2e",
"ak c #808080",
"al c #767676",
"am c #4d4d4d",
"an c #808080",
"ao c #0c0c0c",
"ap c #050505",
"aq c #5b5b5b",
"ar c #bcbcbc",
"as c #8b8b8b",
"at c #292929",
"au c #8d8d8d",
"av c #434343",
"aw c #646464",
"ax c #6d6d6d",
"ay c #1d1d1d",
"az c #7e7e7e",
"aA c #747474",
"aB c #939393",
"aC c #999999",
"aD c #282828",
"aE c #8d8d8d",
"aF c #9c9c9c",
"aG c #626262",
"aH c #b4b4b4",
"aI c #9a9a9a",
"aJ c #4d4d4d",
"aK c #bebebe",
"aL c #454545",
"aM c #b9b9b9",
"aN c #282828",
"aO c #777777",
"aP c #c3c3c3",
"aQ c #1c1c1c",
"aR c #313131",
"aS c #3f3f3f",
"aT c #1e1e1e",
"aU c #272727",
"aV c #c2c2c2",
"aW c #cdcdcd",
"aX c #2a2a2a",
"aY c #2c2c2c",
"aZ c #cdcdcd",
"a0 c #303030",
"a1 c #242424",
"a2 c #464646",
"a3 c #212121",
"a4 c #0c0c0c",
"a5 c #1d1d1d",
"a6 c #cbcbcb",
"a7 c #0e0e0e",
/* pixels */
"...............................................................E............................",
".............................E.p.f.f.f.5.5.y.yaW.y.y.y.y.y.y.y.y.f.Y.E......................",
"...f.f.P.LaPaP#H#H.L#H.B.B.B.KaW.5.P.5.5.5.5.y.y.y.y.y.y.y.5.y.y.y.5.y.5.f..................",
".E.LaKaV.t#H.L#H.L.LaP.L.L#H.B.B.Ka6a6a6a6aW.5.5.5.5.5.5.5.5.5.5.5.5.5aW.y.y.P.p............",
"..aVaraV.taVaVaVaVaVaP.t.L.t.L.L#H.B.K.K.KaWaWaWaWaW.5.5.5.5.5.5.5.5.5.5aWaWaW.B.K.L.p......",
"..aPaCaraKaVaVaVaVaVaVaP.t.t.t.t.t.W.t.K.K.B.K.B.Ba6a6a6a6aWaW.5.5.5aWaWaWaWaWaW.K.L#H.t#H.E",
"...7an#d#T.ZaM.Z.ZaVaVaVaVaV.t.t.t.t.taVaV#H#H.t#H#H.BaWaWaW.5.y.y.y.WaH#z#5#3#3al#M#9#M####",
"..ar#D#7#R#d#t#t#t#t#t#t.Z.ZaV.ZaV#H.t.t.LaM.k#X#.aH#XaHaIasas###3asaE#u###A#AataJaG#l.d.daL",
"..araC#7#j#RaFaMaH#6#O.k#XaH#OaHaH.k.6#g.#abaI#vaI#Aaz#v#vaEaE#u#A#A#A#u#FaA#A#A###M#Uav.1.b",
"..ar#jaa#jaa#V#3##aO#L#uaE#4al#v#v.##v#u#vas.##v#v#3#3#4#4.##4aOam.1.e#r.e.3#raRa5.2ai.w.maU",
"..#daa#7#1#7#1#u#N#J#a##aEaE#M#v#v.#.#as.##3acav#C.a.O.i#GapaD#G.q.laJ.j#e.xa1.G.G.h.raQ.xa0",
"..#Rah#1#q#j#Eak#Y#Ya.af#IaN#b.X.9aU.Qaj.ga2aS.4.8a1.8.X#G.Sae.qad.x.qai.9.R.c.Q.h.c#naXaN#G",
"...D#q#S#SaBaG#3#u###u.UaU.X#w#f.Oa3.8.u#G.9aja0#faN.8aQ.qaN.q.N#h.r.w#e.q#0a2#IaL#o#o.s.e.X",
"...D..#1#Q#S#E#3#A###uaD#G.zaQ#ja2a4#8a0adada0.XaD#s#G.e.2aQ.qaU.8.o.l.laU.l.S.l.xaT.s#oaN.X",
"......#d.V#N#S#3#A#A##.H.Q#f.9aj#EaY#kafaY#s.2ax#r.s.h.q.e#paU.ja..l.2.eaQ.NaTay.Iat.4.m#oaU",
".......Daa#Q#N#3#A#A##a1.X.A#2.s.Aa5.M.N#8.c#y.d.e#Q#WaQ.2.Q.2.4#7.r#7aq.l.S.7#R#V#m#2#pa7.9",
"..........#j#0aA#3#3###n#y#faT#Waq#r#p.ra1.g.s.qaaau#R#j.Tao#GaM#xaj#Z#B#eax.da2#e.N#K#V.Y..",
"..........aZ#PaAal#3#A.N.A.m#2.F.e#lajah.C.a.z.eaJ#w.0.J.M.h#e#eaY#jar.p.......D............",
"............#7#MalaAaA.u.v.F.F.x.h.0#Ka##8.j.jaG#d.p........................................",
"..............#MaAalaA.r.n#c#V.f...............D.D.D.D......................................",
"...............pagaw#i......................................................................"
};
